<svg xmlns="http://www.w3.org/2000/svg" xmlns:xlink="http://www.w3.org/1999/xlink" width="500" zoomAndPan="magnify" viewBox="0 0 375 374.999991" height="500" preserveAspectRatio="xMidYMid meet" version="1.0"><defs><g/><clipPath id="028046bc77"><path d="M 138.199219 146.96875 L 184.511719 146.96875 L 184.511719 251.53125 L 138.199219 251.53125 Z M 138.199219 146.96875 " clip-rule="nonzero"/></clipPath><clipPath id="b0a7a31c32"><path d="M 184.511719 154.46875 L 184.511719 243.996094 C 184.511719 248.136719 181.152344 251.496094 177.011719 251.496094 L 145.699219 251.496094 C 141.558594 251.496094 138.199219 248.136719 138.199219 243.996094 L 138.199219 154.46875 C 138.199219 150.328125 141.558594 146.96875 145.699219 146.96875 L 177.011719 146.96875 C 181.152344 146.96875 184.511719 150.328125 184.511719 154.46875 Z M 184.511719 154.46875 " clip-rule="nonzero"/></clipPath><clipPath id="f741d40ca5"><path d="M 0.199219 0.96875 L 46.511719 0.96875 L 46.511719 105.519531 L 0.199219 105.519531 Z M 0.199219 0.96875 " clip-rule="nonzero"/></clipPath><clipPath id="24373d53a5"><path d="M 46.511719 8.46875 L 46.511719 97.996094 C 46.511719 102.136719 43.152344 105.496094 39.011719 105.496094 L 7.699219 105.496094 C 3.558594 105.496094 0.199219 102.136719 0.199219 97.996094 L 0.199219 8.46875 C 0.199219 4.328125 3.558594 0.96875 7.699219 0.96875 L 39.011719 0.96875 C 43.152344 0.96875 46.511719 4.328125 46.511719 8.46875 Z M 46.511719 8.46875 " clip-rule="nonzero"/></clipPath><clipPath id="6a586f0ea9"><rect x="0" width="47" y="0" height="106"/></clipPath><clipPath id="5b1a533e8c"><path d="M 82.574219 17.363281 L 292.574219 17.363281 L 292.574219 251.363281 L 82.574219 251.363281 Z M 82.574219 17.363281 " clip-rule="nonzero"/></clipPath><clipPath id="d7d81508ee"><path d="M 178 103 L 300 103 L 300 249 L 178 249 Z M 178 103 " clip-rule="nonzero"/></clipPath><clipPath id="4e84ad9b0e"><path d="M 175.738281 135.253906 L 237.292969 101.003906 L 302.046875 217.386719 L 240.492188 251.632812 Z M 175.738281 135.253906 " clip-rule="nonzero"/></clipPath><clipPath id="1b397e12ce"><path d="M 240.941406 107.558594 L 298.320312 210.691406 C 300.335938 214.308594 299.035156 218.878906 295.414062 220.890625 L 246.964844 247.847656 C 243.347656 249.863281 238.78125 248.558594 236.765625 244.941406 L 179.382812 141.808594 C 177.371094 138.1875 178.671875 133.621094 182.292969 131.609375 L 230.738281 104.652344 C 234.359375 102.636719 238.925781 103.941406 240.941406 107.558594 Z M 240.941406 107.558594 " clip-rule="nonzero"/></clipPath><clipPath id="3935e9cdd2"><path d="M 0 0 L 122 0 L 122 146 L 0 146 Z M 0 0 " clip-rule="nonzero"/></clipPath><clipPath id="d3c8f96e62"><path d="M -2.261719 32.253906 L 59.292969 -1.996094 L 124.046875 114.386719 L 62.492188 148.632812 Z M -2.261719 32.253906 " clip-rule="nonzero"/></clipPath><clipPath id="297c6ff685"><path d="M 62.941406 4.558594 L 120.320312 107.691406 C 122.335938 111.308594 121.035156 115.878906 117.414062 117.890625 L 68.964844 144.847656 C 65.347656 146.863281 60.78125 145.558594 58.765625 141.941406 L 1.382812 38.808594 C -0.628906 35.1875 0.671875 30.621094 4.292969 28.609375 L 52.738281 1.652344 C 56.359375 -0.363281 60.925781 0.941406 62.941406 4.558594 Z M 62.941406 4.558594 " clip-rule="nonzero"/></clipPath><clipPath id="82ee0487a1"><rect x="0" width="122" y="0" height="146"/></clipPath><clipPath id="38743c6cd9"><path d="M 233.726562 206.625 L 301.988281 206.625 L 301.988281 250.753906 L 233.726562 250.753906 Z M 233.726562 206.625 " clip-rule="nonzero"/></clipPath><clipPath id="b0a289e890"><path d="M 301.976562 221.625 L 301.976562 235.753906 C 301.976562 244.039062 295.261719 250.753906 286.976562 250.753906 L 248.726562 250.753906 C 240.445312 250.753906 233.726562 244.039062 233.726562 235.753906 L 233.726562 221.625 C 233.726562 213.34375 240.445312 206.625 248.726562 206.625 L 286.976562 206.625 C 295.261719 206.625 301.976562 213.34375 301.976562 221.625 Z M 301.976562 221.625 " clip-rule="nonzero"/></clipPath><clipPath id="101393281a"><path d="M 0.726562 0.625 L 68.988281 0.625 L 68.988281 44.753906 L 0.726562 44.753906 Z M 0.726562 0.625 " clip-rule="nonzero"/></clipPath><clipPath id="530f7b2587"><path d="M 68.976562 15.625 L 68.976562 29.753906 C 68.976562 38.039062 62.261719 44.753906 53.976562 44.753906 L 15.726562 44.753906 C 7.445312 44.753906 0.726562 38.039062 0.726562 29.753906 L 0.726562 15.625 C 0.726562 7.34375 7.445312 0.625 15.726562 0.625 L 53.976562 0.625 C 62.261719 0.625 68.976562 7.34375 68.976562 15.625 Z M 68.976562 15.625 " clip-rule="nonzero"/></clipPath><clipPath id="612b5871e3"><rect x="0" width="69" y="0" height="45"/></clipPath><clipPath id="c1b84379f6"><rect x="0" width="329" y="0" height="70"/></clipPath><clipPath id="5106349bd5"><rect x="0" width="138" y="0" height="49"/></clipPath></defs><g clip-path="url(#028046bc77)"><g clip-path="url(#b0a7a31c32)"><g transform="matrix(1, 0, 0, 1, 138, 146)"><g clip-path="url(#6a586f0ea9)"><g clip-path="url(#f741d40ca5)"><g clip-path="url(#24373d53a5)"><path fill="#ffffff" d="M 0.199219 0.96875 L 46.511719 0.96875 L 46.511719 105.53125 L 0.199219 105.53125 Z M 0.199219 0.96875 " fill-opacity="1" fill-rule="nonzero"/></g></g></g></g></g></g><g clip-path="url(#5b1a533e8c)"><path fill="#ffffff" d="M 219.195312 17.449219 L 124.699219 17.449219 C 117.285156 17.449219 111.320312 23.417969 111.320312 30.828125 L 111.320312 101.703125 C 119.121094 97.234375 160.996094 85.398438 175.484375 81.375 C 192.871094 62.621094 221.222656 56.933594 244.992188 69.332031 C 234.761719 88.9375 214.925781 100.277344 194.269531 100.597656 C 193.617188 102.796875 192.75 104.882812 191.5625 106.746094 C 189.390625 110.25 186.433594 113.132812 182.980469 115.171875 C 177.425781 118.464844 170.640625 119.597656 163.894531 117.945312 L 163.839844 117.914062 C 163.839844 117.914062 173.046875 112.929688 176.539062 104.511719 C 177.265625 102.726562 177.683594 100.785156 177.769531 98.726562 C 166.15625 103.269531 147.070312 111.605469 133.253906 122.074219 C 126.382812 127.257812 118.609375 133.34375 111.316406 139.613281 C 96.074219 152.808594 82.574219 166.789062 82.574219 175.226562 C 82.574219 186.617188 106.4375 186.015625 110.65625 185.835938 L 111.320312 185.773438 L 111.320312 238.023438 C 111.320312 245.4375 117.285156 251.402344 124.699219 251.402344 L 170.378906 251.402344 C 177.792969 251.402344 183.757812 245.4375 183.757812 238.023438 L 183.757812 179.929688 C 183.757812 170.527344 142.292969 163.835938 142.292969 163.835938 L 219.195312 163.835938 C 239.445312 163.835938 257.703125 155.640625 270.960938 142.441406 C 284.222656 129.183594 292.421875 110.863281 292.421875 90.675781 C 292.421875 50.234375 259.636719 17.449219 219.195312 17.449219 Z M 168.683594 79.65625 C 161.03125 74.695312 150.636719 75.917969 150.636719 75.917969 L 150.667969 75.859375 C 155.257812 70.644531 161.46875 67.691406 167.910156 67.214844 C 171.90625 66.910156 175.980469 67.585938 179.769531 69.214844 C 175.667969 72.230469 171.945312 75.71875 168.683594 79.65625 Z M 168.683594 79.65625 " fill-opacity="1" fill-rule="nonzero"/></g><g clip-path="url(#d7d81508ee)"><g clip-path="url(#4e84ad9b0e)"><g clip-path="url(#1b397e12ce)"><g transform="matrix(1, 0, 0, 1, 178, 103)"><g clip-path="url(#82ee0487a1)"><g clip-path="url(#3935e9cdd2)"><g clip-path="url(#d3c8f96e62)"><g clip-path="url(#297c6ff685)"><path fill="#ffffff" d="M -2.261719 32.253906 L 59.292969 -1.996094 L 123.914062 114.144531 L 62.355469 148.394531 Z M -2.261719 32.253906 " fill-opacity="1" fill-rule="nonzero"/></g></g></g></g></g></g></g></g><g clip-path="url(#38743c6cd9)"><g clip-path="url(#b0a289e890)"><g transform="matrix(1, 0, 0, 1, 233, 206)"><g clip-path="url(#612b5871e3)"><g clip-path="url(#101393281a)"><g clip-path="url(#530f7b2587)"><path fill="#ffffff" d="M 0.726562 0.625 L 68.988281 0.625 L 68.988281 44.753906 L 0.726562 44.753906 Z M 0.726562 0.625 " fill-opacity="1" fill-rule="nonzero"/></g></g></g></g></g></g><g transform="matrix(1, 0, 0, 1, 22, 266)"><g clip-path="url(#c1b84379f6)"><g fill="#ffffff" fill-opacity="1"><g transform="translate(2.020313, 51.524172)"><g><path d="M 20.40625 0 L 13.3125 -12.875 L 11.328125 -12.875 L 11.328125 0 L 3.015625 0 L 3.015625 -34.109375 L 16.953125 -34.109375 C 19.648438 -34.109375 21.941406 -33.640625 23.828125 -32.703125 C 25.722656 -31.765625 27.140625 -30.476562 28.078125 -28.84375 C 29.023438 -27.207031 29.5 -25.382812 29.5 -23.375 C 29.5 -21.101562 28.859375 -19.078125 27.578125 -17.296875 C 26.296875 -15.515625 24.410156 -14.253906 21.921875 -13.515625 L 29.78125 0 Z M 11.328125 -18.75 L 16.46875 -18.75 C 17.988281 -18.75 19.128906 -19.125 19.890625 -19.875 C 20.660156 -20.625 21.046875 -21.675781 21.046875 -23.03125 C 21.046875 -24.332031 20.660156 -25.351562 19.890625 -26.09375 C 19.128906 -26.84375 17.988281 -27.21875 16.46875 -27.21875 L 11.328125 -27.21875 Z M 11.328125 -18.75 "/></g></g></g><g fill="#ffffff" fill-opacity="1"><g transform="translate(32.46893, 51.524172)"><g><path d="M 19.140625 0.34375 C 15.929688 0.34375 12.988281 -0.398438 10.3125 -1.890625 C 7.644531 -3.378906 5.523438 -5.460938 3.953125 -8.140625 C 2.390625 -10.816406 1.609375 -13.820312 1.609375 -17.15625 C 1.609375 -20.488281 2.390625 -23.484375 3.953125 -26.140625 C 5.523438 -28.796875 7.644531 -30.867188 10.3125 -32.359375 C 12.988281 -33.847656 15.929688 -34.59375 19.140625 -34.59375 C 22.347656 -34.59375 25.285156 -33.847656 27.953125 -32.359375 C 30.628906 -30.867188 32.738281 -28.796875 34.28125 -26.140625 C 35.820312 -23.484375 36.59375 -20.488281 36.59375 -17.15625 C 36.59375 -13.820312 35.8125 -10.816406 34.25 -8.140625 C 32.695312 -5.460938 30.59375 -3.378906 27.9375 -1.890625 C 25.28125 -0.398438 22.347656 0.34375 19.140625 0.34375 Z M 19.140625 -7.234375 C 21.867188 -7.234375 24.050781 -8.140625 25.6875 -9.953125 C 27.320312 -11.773438 28.140625 -14.175781 28.140625 -17.15625 C 28.140625 -20.164062 27.320312 -22.566406 25.6875 -24.359375 C 24.050781 -26.160156 21.867188 -27.0625 19.140625 -27.0625 C 16.390625 -27.0625 14.195312 -26.171875 12.5625 -24.390625 C 10.925781 -22.609375 10.109375 -20.195312 10.109375 -17.15625 C 10.109375 -14.144531 10.925781 -11.738281 12.5625 -9.9375 C 14.195312 -8.132812 16.390625 -7.234375 19.140625 -7.234375 Z M 19.140625 -7.234375 "/></g></g></g><g fill="#ffffff" fill-opacity="1"><g transform="translate(69.425032, 51.524172)"><g><path d="M 1.609375 -17.109375 C 1.609375 -20.472656 2.335938 -23.472656 3.796875 -26.109375 C 5.253906 -28.753906 7.285156 -30.8125 9.890625 -32.28125 C 12.492188 -33.757812 15.445312 -34.5 18.75 -34.5 C 22.800781 -34.5 26.269531 -33.429688 29.15625 -31.296875 C 32.039062 -29.160156 33.96875 -26.242188 34.9375 -22.546875 L 25.796875 -22.546875 C 25.117188 -23.972656 24.15625 -25.054688 22.90625 -25.796875 C 21.664062 -26.546875 20.25 -26.921875 18.65625 -26.921875 C 16.101562 -26.921875 14.03125 -26.03125 12.4375 -24.25 C 10.851562 -22.46875 10.0625 -20.085938 10.0625 -17.109375 C 10.0625 -14.128906 10.851562 -11.75 12.4375 -9.96875 C 14.03125 -8.1875 16.101562 -7.296875 18.65625 -7.296875 C 20.25 -7.296875 21.664062 -7.664062 22.90625 -8.40625 C 24.15625 -9.15625 25.117188 -10.238281 25.796875 -11.65625 L 34.9375 -11.65625 C 33.96875 -7.96875 32.039062 -5.0625 29.15625 -2.9375 C 26.269531 -0.8125 22.800781 0.25 18.75 0.25 C 15.445312 0.25 12.492188 -0.484375 9.890625 -1.953125 C 7.285156 -3.429688 5.253906 -5.484375 3.796875 -8.109375 C 2.335938 -10.734375 1.609375 -13.734375 1.609375 -17.109375 Z M 1.609375 -17.109375 "/></g></g></g><g fill="#ffffff" fill-opacity="1"><g transform="translate(105.215614, 51.524172)"><g><path d="M 22.796875 0 L 11.328125 -15.0625 L 11.328125 0 L 3.015625 0 L 3.015625 -34.109375 L 11.328125 -34.109375 L 11.328125 -19.140625 L 22.6875 -34.109375 L 32.453125 -34.109375 L 19.25 -17.390625 L 32.953125 0 Z M 22.796875 0 "/></g></g></g><g fill="#ffffff" fill-opacity="1"><g transform="translate(137.849572, 51.524172)"><g><path d="M 11.328125 -27.453125 L 11.328125 -20.5625 L 22.453125 -20.5625 L 22.453125 -14.140625 L 11.328125 -14.140625 L 11.328125 -6.65625 L 23.90625 -6.65625 L 23.90625 0 L 3.015625 0 L 3.015625 -34.109375 L 23.90625 -34.109375 L 23.90625 -27.453125 Z M 11.328125 -27.453125 "/></g></g></g><g fill="#ffffff" fill-opacity="1"><g transform="translate(162.907632, 51.524172)"><g><path d="M 27.546875 -34.109375 L 27.546875 -27.453125 L 18.515625 -27.453125 L 18.515625 0 L 10.203125 0 L 10.203125 -27.453125 L 1.171875 -27.453125 L 1.171875 -34.109375 Z M 27.546875 -34.109375 "/></g></g></g><g fill="#ffffff" fill-opacity="1"><g transform="translate(190.393866, 51.524172)"><g/></g></g><g fill="#ffffff" fill-opacity="1"><g transform="translate(199.474595, 51.524172)"><g><path d="M 1.609375 -17.109375 C 1.609375 -20.472656 2.335938 -23.472656 3.796875 -26.109375 C 5.253906 -28.753906 7.285156 -30.8125 9.890625 -32.28125 C 12.492188 -33.757812 15.445312 -34.5 18.75 -34.5 C 22.800781 -34.5 26.269531 -33.429688 29.15625 -31.296875 C 32.039062 -29.160156 33.96875 -26.242188 34.9375 -22.546875 L 25.796875 -22.546875 C 25.117188 -23.972656 24.15625 -25.054688 22.90625 -25.796875 C 21.664062 -26.546875 20.25 -26.921875 18.65625 -26.921875 C 16.101562 -26.921875 14.03125 -26.03125 12.4375 -24.25 C 10.851562 -22.46875 10.0625 -20.085938 10.0625 -17.109375 C 10.0625 -14.128906 10.851562 -11.75 12.4375 -9.96875 C 14.03125 -8.1875 16.101562 -7.296875 18.65625 -7.296875 C 20.25 -7.296875 21.664062 -7.664062 22.90625 -8.40625 C 24.15625 -9.15625 25.117188 -10.238281 25.796875 -11.65625 L 34.9375 -11.65625 C 33.96875 -7.96875 32.039062 -5.0625 29.15625 -2.9375 C 26.269531 -0.8125 22.800781 0.25 18.75 0.25 C 15.445312 0.25 12.492188 -0.484375 9.890625 -1.953125 C 7.285156 -3.429688 5.253906 -5.484375 3.796875 -8.109375 C 2.335938 -10.734375 1.609375 -13.734375 1.609375 -17.109375 Z M 1.609375 -17.109375 "/></g></g></g><g fill="#ffffff" fill-opacity="1"><g transform="translate(235.265177, 51.524172)"><g><path d="M 19.140625 0.34375 C 15.929688 0.34375 12.988281 -0.398438 10.3125 -1.890625 C 7.644531 -3.378906 5.523438 -5.460938 3.953125 -8.140625 C 2.390625 -10.816406 1.609375 -13.820312 1.609375 -17.15625 C 1.609375 -20.488281 2.390625 -23.484375 3.953125 -26.140625 C 5.523438 -28.796875 7.644531 -30.867188 10.3125 -32.359375 C 12.988281 -33.847656 15.929688 -34.59375 19.140625 -34.59375 C 22.347656 -34.59375 25.285156 -33.847656 27.953125 -32.359375 C 30.628906 -30.867188 32.738281 -28.796875 34.28125 -26.140625 C 35.820312 -23.484375 36.59375 -20.488281 36.59375 -17.15625 C 36.59375 -13.820312 35.8125 -10.816406 34.25 -8.140625 C 32.695312 -5.460938 30.59375 -3.378906 27.9375 -1.890625 C 25.28125 -0.398438 22.347656 0.34375 19.140625 0.34375 Z M 19.140625 -7.234375 C 21.867188 -7.234375 24.050781 -8.140625 25.6875 -9.953125 C 27.320312 -11.773438 28.140625 -14.175781 28.140625 -17.15625 C 28.140625 -20.164062 27.320312 -22.566406 25.6875 -24.359375 C 24.050781 -26.160156 21.867188 -27.0625 19.140625 -27.0625 C 16.390625 -27.0625 14.195312 -26.171875 12.5625 -24.390625 C 10.925781 -22.609375 10.109375 -20.195312 10.109375 -17.15625 C 10.109375 -14.144531 10.925781 -11.738281 12.5625 -9.9375 C 14.195312 -8.132812 16.390625 -7.234375 19.140625 -7.234375 Z M 19.140625 -7.234375 "/></g></g></g><g fill="#ffffff" fill-opacity="1"><g transform="translate(272.22128, 51.524172)"><g><path d="M 20.40625 0 L 13.3125 -12.875 L 11.328125 -12.875 L 11.328125 0 L 3.015625 0 L 3.015625 -34.109375 L 16.953125 -34.109375 C 19.648438 -34.109375 21.941406 -33.640625 23.828125 -32.703125 C 25.722656 -31.765625 27.140625 -30.476562 28.078125 -28.84375 C 29.023438 -27.207031 29.5 -25.382812 29.5 -23.375 C 29.5 -21.101562 28.859375 -19.078125 27.578125 -17.296875 C 26.296875 -15.515625 24.410156 -14.253906 21.921875 -13.515625 L 29.78125 0 Z M 11.328125 -18.75 L 16.46875 -18.75 C 17.988281 -18.75 19.128906 -19.125 19.890625 -19.875 C 20.660156 -20.625 21.046875 -21.675781 21.046875 -23.03125 C 21.046875 -24.332031 20.660156 -25.351562 19.890625 -26.09375 C 19.128906 -26.84375 17.988281 -27.21875 16.46875 -27.21875 L 11.328125 -27.21875 Z M 11.328125 -18.75 "/></g></g></g><g fill="#ffffff" fill-opacity="1"><g transform="translate(302.669896, 51.524172)"><g><path d="M 11.328125 -27.453125 L 11.328125 -20.5625 L 22.453125 -20.5625 L 22.453125 -14.140625 L 11.328125 -14.140625 L 11.328125 -6.65625 L 23.90625 -6.65625 L 23.90625 0 L 3.015625 0 L 3.015625 -34.109375 L 23.90625 -34.109375 L 23.90625 -27.453125 Z M 11.328125 -27.453125 "/></g></g></g></g></g><g transform="matrix(1, 0, 0, 1, 119, 326)"><g clip-path="url(#5106349bd5)"><g fill="#edaf66" fill-opacity="1"><g transform="translate(1.177323, 38.521123)"><g><path d="M 11.296875 -26.796875 C 14.222656 -26.796875 16.753906 -26.25 18.890625 -25.15625 C 21.035156 -24.070312 22.675781 -22.515625 23.8125 -20.484375 C 24.945312 -18.460938 25.515625 -16.082031 25.515625 -13.34375 C 25.515625 -10.59375 24.945312 -8.210938 23.8125 -6.203125 C 22.675781 -4.191406 21.035156 -2.65625 18.890625 -1.59375 C 16.753906 -0.53125 14.222656 0 11.296875 0 L 2.953125 0 L 2.953125 -26.796875 Z M 11.296875 -2.890625 C 14.753906 -2.890625 17.394531 -3.800781 19.21875 -5.625 C 21.039062 -7.457031 21.953125 -10.03125 21.953125 -13.34375 C 21.953125 -16.664062 21.035156 -19.265625 19.203125 -21.140625 C 17.367188 -23.015625 14.734375 -23.953125 11.296875 -23.953125 L 6.453125 -23.953125 L 6.453125 -2.890625 Z M 11.296875 -2.890625 "/></g></g></g><g fill="#edaf66" fill-opacity="1"><g transform="translate(27.570012, 38.521123)"><g><path d="M 6.453125 -26.796875 L 6.453125 0 L 2.953125 0 L 2.953125 -26.796875 Z M 6.453125 -26.796875 "/></g></g></g><g fill="#edaf66" fill-opacity="1"><g transform="translate(36.252035, 38.521123)"><g><path d="M 23.25 -19.03125 C 22.507812 -20.59375 21.429688 -21.800781 20.015625 -22.65625 C 18.609375 -23.519531 16.972656 -23.953125 15.109375 -23.953125 C 13.234375 -23.953125 11.546875 -23.519531 10.046875 -22.65625 C 8.546875 -21.800781 7.367188 -20.570312 6.515625 -18.96875 C 5.660156 -17.363281 5.234375 -15.515625 5.234375 -13.421875 C 5.234375 -11.316406 5.660156 -9.46875 6.515625 -7.875 C 7.367188 -6.289062 8.546875 -5.066406 10.046875 -4.203125 C 11.546875 -3.347656 13.234375 -2.921875 15.109375 -2.921875 C 17.722656 -2.921875 19.875 -3.703125 21.5625 -5.265625 C 23.25 -6.828125 24.234375 -8.941406 24.515625 -11.609375 L 13.84375 -11.609375 L 13.84375 -14.453125 L 28.25 -14.453125 L 28.25 -11.765625 C 28.039062 -9.554688 27.347656 -7.535156 26.171875 -5.703125 C 24.992188 -3.867188 23.441406 -2.421875 21.515625 -1.359375 C 19.597656 -0.296875 17.460938 0.234375 15.109375 0.234375 C 12.617188 0.234375 10.347656 -0.347656 8.296875 -1.515625 C 6.253906 -2.679688 4.632812 -4.300781 3.4375 -6.375 C 2.25 -8.457031 1.65625 -10.804688 1.65625 -13.421875 C 1.65625 -16.023438 2.25 -18.367188 3.4375 -20.453125 C 4.632812 -22.546875 6.253906 -24.175781 8.296875 -25.34375 C 10.347656 -26.507812 12.617188 -27.09375 15.109375 -27.09375 C 17.953125 -27.09375 20.46875 -26.390625 22.65625 -24.984375 C 24.851562 -23.578125 26.445312 -21.59375 27.4375 -19.03125 Z M 23.25 -19.03125 "/></g></g></g><g fill="#edaf66" fill-opacity="1"><g transform="translate(65.372407, 38.521123)"><g><path d="M 6.453125 -26.796875 L 6.453125 0 L 2.953125 0 L 2.953125 -26.796875 Z M 6.453125 -26.796875 "/></g></g></g><g fill="#edaf66" fill-opacity="1"><g transform="translate(74.054431, 38.521123)"><g><path d="M 19.453125 -26.796875 L 19.453125 -23.953125 L 12.140625 -23.953125 L 12.140625 0 L 8.65625 0 L 8.65625 -23.953125 L 1.3125 -23.953125 L 1.3125 -26.796875 Z M 19.453125 -26.796875 "/></g></g></g><g fill="#edaf66" fill-opacity="1"><g transform="translate(94.069742, 38.521123)"><g><path d="M 18.796875 -5.953125 L 7.109375 -5.953125 L 4.953125 0 L 1.265625 0 L 10.953125 -26.640625 L 14.984375 -26.640625 L 24.640625 0 L 20.953125 0 Z M 17.796875 -8.796875 L 12.953125 -22.328125 L 8.109375 -8.796875 Z M 17.796875 -8.796875 "/></g></g></g><g fill="#edaf66" fill-opacity="1"><g transform="translate(119.194653, 38.521123)"><g><path d="M 6.453125 -2.84375 L 15.84375 -2.84375 L 15.84375 0 L 2.953125 0 L 2.953125 -26.796875 L 6.453125 -26.796875 Z M 6.453125 -2.84375 "/></g></g></g></g></g></svg>