<svg xmlns="http://www.w3.org/2000/svg" xmlns:xlink="http://www.w3.org/1999/xlink" width="3780" zoomAndPan="magnify" viewBox="0 0 2835 850.499975" height="1134" preserveAspectRatio="xMidYMid meet" version="1.0"><defs><g/><clipPath id="07d33eb8b2"><path d="M 176.824219 410.644531 L 323.34375 410.644531 L 323.34375 741.460938 L 176.824219 741.460938 Z M 176.824219 410.644531 " clip-rule="nonzero"/></clipPath><clipPath id="b4247a2e23"><path d="M 323.34375 432.667969 L 323.34375 719.328125 C 323.34375 725.167969 321.023438 730.769531 316.894531 734.898438 C 312.761719 739.027344 307.164062 741.347656 301.320312 741.347656 L 198.84375 741.347656 C 193.003906 741.347656 187.402344 739.027344 183.273438 734.898438 C 179.144531 730.769531 176.824219 725.167969 176.824219 719.328125 L 176.824219 432.667969 C 176.824219 426.828125 179.144531 421.226562 183.273438 417.09375 C 187.402344 412.964844 193.003906 410.644531 198.84375 410.644531 L 301.320312 410.644531 C 307.164062 410.644531 312.761719 412.964844 316.894531 417.09375 C 321.023438 421.226562 323.34375 426.828125 323.34375 432.667969 Z M 323.34375 432.667969 " clip-rule="nonzero"/></clipPath><clipPath id="f80a106042"><path d="M 0.824219 0.644531 L 147.34375 0.644531 L 147.34375 331.371094 L 0.824219 331.371094 Z M 0.824219 0.644531 " clip-rule="nonzero"/></clipPath><clipPath id="6bcc50b169"><path d="M 147.34375 22.667969 L 147.34375 309.328125 C 147.34375 315.167969 145.023438 320.769531 140.894531 324.898438 C 136.761719 329.027344 131.164062 331.347656 125.320312 331.347656 L 22.84375 331.347656 C 17.003906 331.347656 11.402344 329.027344 7.273438 324.898438 C 3.144531 320.769531 0.824219 315.167969 0.824219 309.328125 L 0.824219 22.667969 C 0.824219 16.828125 3.144531 11.226562 7.273438 7.09375 C 11.402344 2.964844 17.003906 0.644531 22.84375 0.644531 L 125.320312 0.644531 C 131.164062 0.644531 136.761719 2.964844 140.894531 7.09375 C 145.023438 11.226562 147.34375 16.828125 147.34375 22.667969 Z M 147.34375 22.667969 " clip-rule="nonzero"/></clipPath><clipPath id="028c1b9c8d"><rect x="0" width="148" y="0" height="332"/></clipPath><clipPath id="79f9b0386b"><path d="M 0.832031 0.605469 L 665 0.605469 L 665 741.261719 L 0.832031 741.261719 Z M 0.832031 0.605469 " clip-rule="nonzero"/></clipPath><clipPath id="949a674fd0"><path d="M 303 273 L 688 273 L 688 734 L 303 734 Z M 303 273 " clip-rule="nonzero"/></clipPath><clipPath id="e2eab9bd5f"><path d="M 295.582031 373.585938 L 490.332031 265.226562 L 695.195312 633.425781 L 500.445312 741.785156 Z M 295.582031 373.585938 " clip-rule="nonzero"/></clipPath><clipPath id="beccdf42a7"><path d="M 501.039062 284.472656 L 684.242188 613.738281 C 687.082031 618.84375 687.777344 624.867188 686.175781 630.484375 C 684.574219 636.101562 680.808594 640.851562 675.707031 643.691406 L 519.441406 730.632812 C 514.339844 733.472656 508.316406 734.167969 502.699219 732.566406 C 497.082031 730.96875 492.332031 727.199219 489.492188 722.097656 L 306.289062 392.828125 C 303.449219 387.726562 302.753906 381.703125 304.355469 376.085938 C 305.957031 370.46875 309.722656 365.71875 314.828125 362.878906 L 471.089844 275.933594 C 476.191406 273.09375 482.214844 272.398438 487.832031 274 C 493.449219 275.601562 498.199219 279.367188 501.039062 284.472656 Z M 501.039062 284.472656 " clip-rule="nonzero"/></clipPath><clipPath id="d38b34bdbb"><path d="M 0 0 L 384.9375 0 L 384.9375 461 L 0 461 Z M 0 0 " clip-rule="nonzero"/></clipPath><clipPath id="0c477a9838"><path d="M -7.417969 100.585938 L 187.332031 -7.773438 L 392.195312 360.425781 L 197.445312 468.785156 Z M -7.417969 100.585938 " clip-rule="nonzero"/></clipPath><clipPath id="36976ddd57"><path d="M 198.039062 11.472656 L 381.242188 340.738281 C 384.082031 345.84375 384.777344 351.867188 383.175781 357.484375 C 381.574219 363.101562 377.808594 367.851562 372.707031 370.691406 L 216.441406 457.632812 C 211.339844 460.472656 205.316406 461.167969 199.699219 459.566406 C 194.082031 457.96875 189.332031 454.199219 186.492188 449.097656 L 3.289062 119.828125 C 0.449219 114.726562 -0.246094 108.703125 1.355469 103.085938 C 2.957031 97.46875 6.722656 92.71875 11.828125 89.878906 L 168.089844 2.933594 C 173.191406 0.09375 179.214844 -0.601562 184.832031 1 C 190.449219 2.601562 195.199219 6.367188 198.039062 11.472656 Z M 198.039062 11.472656 " clip-rule="nonzero"/></clipPath><clipPath id="a3aec88dd4"><rect x="0" width="385" y="0" height="461"/></clipPath><clipPath id="d991eae296"><path d="M 479.054688 599.390625 L 695 599.390625 L 695 739.003906 L 479.054688 739.003906 Z M 479.054688 599.390625 " clip-rule="nonzero"/></clipPath><clipPath id="8ca9da0e6c"><path d="M 694.976562 643.433594 L 694.976562 694.960938 C 694.976562 706.640625 690.335938 717.84375 682.074219 726.101562 C 673.816406 734.363281 662.613281 739.003906 650.933594 739.003906 L 523.097656 739.003906 C 511.417969 739.003906 500.214844 734.363281 491.957031 726.101562 C 483.695312 717.84375 479.054688 706.640625 479.054688 694.960938 L 479.054688 643.433594 C 479.054688 631.753906 483.695312 620.550781 491.957031 612.289062 C 500.214844 604.03125 511.417969 599.390625 523.097656 599.390625 L 650.933594 599.390625 C 662.613281 599.390625 673.816406 604.03125 682.074219 612.289062 C 690.335938 620.550781 694.976562 631.753906 694.976562 643.433594 Z M 694.976562 643.433594 " clip-rule="nonzero"/></clipPath><clipPath id="8f8e8075b2"><path d="M 0.0546875 0.390625 L 216 0.390625 L 216 140.003906 L 0.0546875 140.003906 Z M 0.0546875 0.390625 " clip-rule="nonzero"/></clipPath><clipPath id="a02e971b7b"><path d="M 215.976562 44.433594 L 215.976562 95.960938 C 215.976562 107.640625 211.335938 118.84375 203.074219 127.101562 C 194.816406 135.363281 183.613281 140.003906 171.933594 140.003906 L 44.097656 140.003906 C 32.417969 140.003906 21.214844 135.363281 12.957031 127.101562 C 4.695312 118.84375 0.0546875 107.640625 0.0546875 95.960938 L 0.0546875 44.433594 C 0.0546875 32.753906 4.695312 21.550781 12.957031 13.289062 C 21.214844 5.03125 32.417969 0.390625 44.097656 0.390625 L 171.933594 0.390625 C 183.613281 0.390625 194.816406 5.03125 203.074219 13.289062 C 211.335938 21.550781 215.976562 32.753906 215.976562 44.433594 Z M 215.976562 44.433594 " clip-rule="nonzero"/></clipPath><clipPath id="1173fcb2fd"><rect x="0" width="216" y="0" height="141"/></clipPath><clipPath id="6f29200678"><path d="M 926 78 L 2716.1875 78 L 2716.1875 453 L 926 453 Z M 926 78 " clip-rule="nonzero"/></clipPath><clipPath id="36d8863d7a"><rect x="0" width="1791" y="0" height="375"/></clipPath><clipPath id="411f290d6f"><rect x="0" width="748" y="0" height="288"/></clipPath><clipPath id="0a810326ae"><rect x="0" width="2717" y="0" height="742"/></clipPath></defs><g transform="matrix(1, 0, 0, 1, 85, 54)"><g clip-path="url(#0a810326ae)"><g clip-path="url(#07d33eb8b2)"><g clip-path="url(#b4247a2e23)"><g transform="matrix(1, 0, 0, 1, 176, 410)"><g clip-path="url(#028c1b9c8d)"><g clip-path="url(#f80a106042)"><g clip-path="url(#6bcc50b169)"><path fill="#ffffff" d="M 0.824219 0.644531 L 147.34375 0.644531 L 147.34375 331.460938 L 0.824219 331.460938 Z M 0.824219 0.644531 " fill-opacity="1" fill-rule="nonzero"/></g></g></g></g></g></g><g clip-path="url(#79f9b0386b)"><path fill="#ffffff" d="M 433.089844 0.878906 L 134.113281 0.878906 C 110.660156 0.878906 91.785156 19.753906 91.785156 43.207031 L 91.785156 267.441406 C 116.460938 253.296875 248.949219 215.859375 294.789062 203.132812 C 349.792969 143.792969 439.5 125.796875 514.695312 165.023438 C 482.339844 227.054688 419.578125 262.925781 354.21875 263.9375 C 352.152344 270.90625 349.414062 277.503906 345.664062 283.398438 C 338.789062 294.476562 329.429688 303.605469 318.511719 310.058594 C 300.929688 320.476562 279.46875 324.054688 258.117188 318.828125 L 257.945312 318.734375 C 257.945312 318.734375 287.078125 302.960938 298.125 276.328125 C 300.425781 270.683594 301.75 264.542969 302.019531 258.027344 C 265.273438 272.398438 204.890625 298.769531 161.183594 331.894531 C 139.445312 348.289062 114.847656 367.550781 91.777344 387.382812 C 43.546875 429.132812 0.832031 473.367188 0.832031 500.0625 C 0.832031 536.097656 76.339844 534.191406 89.683594 533.621094 L 91.78125 533.433594 L 91.78125 698.742188 C 91.78125 722.195312 110.65625 741.070312 134.109375 741.070312 L 278.640625 741.070312 C 302.089844 741.070312 320.96875 722.195312 320.96875 698.742188 L 320.96875 514.9375 C 320.96875 485.191406 189.78125 464.027344 189.78125 464.027344 L 433.082031 464.027344 C 497.148438 464.027344 554.917969 438.09375 596.867188 396.335938 C 638.824219 354.386719 664.757812 296.425781 664.757812 232.550781 C 664.757812 104.605469 561.03125 0.878906 433.089844 0.878906 Z M 273.269531 197.6875 C 249.058594 181.996094 216.183594 185.855469 216.183594 185.855469 L 216.273438 185.683594 C 230.792969 169.179688 250.441406 159.835938 270.820312 158.324219 C 283.46875 157.367188 296.367188 159.5 308.339844 164.652344 C 295.375 174.199219 283.59375 185.234375 273.269531 197.6875 Z M 273.269531 197.6875 " fill-opacity="1" fill-rule="nonzero"/></g><g clip-path="url(#949a674fd0)"><g clip-path="url(#e2eab9bd5f)"><g clip-path="url(#beccdf42a7)"><g transform="matrix(1, 0, 0, 1, 303, 273)"><g clip-path="url(#a3aec88dd4)"><g clip-path="url(#d38b34bdbb)"><g clip-path="url(#0c477a9838)"><g clip-path="url(#36976ddd57)"><path fill="#ffffff" d="M -7.417969 100.585938 L 187.332031 -7.773438 L 391.773438 359.667969 L 197.023438 468.023438 Z M -7.417969 100.585938 " fill-opacity="1" fill-rule="nonzero"/></g></g></g></g></g></g></g></g><g clip-path="url(#d991eae296)"><g clip-path="url(#8ca9da0e6c)"><g transform="matrix(1, 0, 0, 1, 479, 599)"><g clip-path="url(#1173fcb2fd)"><g clip-path="url(#8f8e8075b2)"><g clip-path="url(#a02e971b7b)"><path fill="#ffffff" d="M 0.0546875 0.390625 L 216.019531 0.390625 L 216.019531 140.003906 L 0.0546875 140.003906 Z M 0.0546875 0.390625 " fill-opacity="1" fill-rule="nonzero"/></g></g></g></g></g></g><g clip-path="url(#6f29200678)"><g transform="matrix(1, 0, 0, 1, 926, 78)"><g clip-path="url(#36d8863d7a)"><g fill="#ffffff" fill-opacity="1"><g transform="translate(1.778607, 278.529363)"><g><path d="M 111.375 0 L 72.65625 -70.265625 L 61.78125 -70.265625 L 61.78125 0 L 16.4375 0 L 16.4375 -186.15625 L 92.546875 -186.15625 C 107.210938 -186.15625 119.71875 -183.585938 130.0625 -178.453125 C 140.40625 -173.328125 148.140625 -166.300781 153.265625 -157.375 C 158.390625 -148.445312 160.953125 -138.503906 160.953125 -127.546875 C 160.953125 -115.171875 157.460938 -104.117188 150.484375 -94.390625 C 143.503906 -84.671875 133.207031 -77.78125 119.59375 -73.71875 L 162.546875 0 Z M 61.78125 -102.359375 L 89.890625 -102.359375 C 98.203125 -102.359375 104.429688 -104.390625 108.578125 -108.453125 C 112.734375 -112.515625 114.8125 -118.257812 114.8125 -125.6875 C 114.8125 -132.757812 112.734375 -138.328125 108.578125 -142.390625 C 104.429688 -146.460938 98.203125 -148.5 89.890625 -148.5 L 61.78125 -148.5 Z M 61.78125 -102.359375 "/></g></g></g><g fill="#ffffff" fill-opacity="1"><g transform="translate(167.960269, 278.529363)"><g><path d="M 104.484375 1.859375 C 86.972656 1.859375 70.925781 -2.207031 56.34375 -10.34375 C 41.757812 -18.476562 30.179688 -29.835938 21.609375 -44.421875 C 13.035156 -59.003906 8.75 -75.398438 8.75 -93.609375 C 8.75 -111.816406 13.035156 -128.164062 21.609375 -142.65625 C 30.179688 -157.15625 41.757812 -168.46875 56.34375 -176.59375 C 70.925781 -184.726562 86.972656 -188.796875 104.484375 -188.796875 C 121.984375 -188.796875 138.023438 -184.726562 152.609375 -176.59375 C 167.191406 -168.46875 178.679688 -157.15625 187.078125 -142.65625 C 195.472656 -128.164062 199.671875 -111.816406 199.671875 -93.609375 C 199.671875 -75.398438 195.425781 -59.003906 186.9375 -44.421875 C 178.457031 -29.835938 166.96875 -18.476562 152.46875 -10.34375 C 137.976562 -2.207031 121.984375 1.859375 104.484375 1.859375 Z M 104.484375 -39.515625 C 119.328125 -39.515625 131.210938 -44.460938 140.140625 -54.359375 C 149.066406 -64.253906 153.53125 -77.335938 153.53125 -93.609375 C 153.53125 -110.046875 149.066406 -123.171875 140.140625 -132.984375 C 131.210938 -142.796875 119.328125 -147.703125 104.484375 -147.703125 C 89.453125 -147.703125 77.472656 -142.835938 68.546875 -133.109375 C 59.617188 -123.390625 55.15625 -110.222656 55.15625 -93.609375 C 55.15625 -77.160156 59.617188 -64.03125 68.546875 -54.21875 C 77.472656 -44.414062 89.453125 -39.515625 104.484375 -39.515625 Z M 104.484375 -39.515625 "/></g></g></g><g fill="#ffffff" fill-opacity="1"><g transform="translate(369.658319, 278.529363)"><g><path d="M 8.75 -93.34375 C 8.75 -111.726562 12.722656 -128.125 20.671875 -142.53125 C 28.628906 -156.9375 39.722656 -168.160156 53.953125 -176.203125 C 68.191406 -184.242188 84.328125 -188.265625 102.359375 -188.265625 C 124.453125 -188.265625 143.363281 -182.429688 159.09375 -170.765625 C 174.832031 -159.097656 185.351562 -143.191406 190.65625 -123.046875 L 140.8125 -123.046875 C 137.09375 -130.816406 131.828125 -136.734375 125.015625 -140.796875 C 118.210938 -144.867188 110.484375 -146.90625 101.828125 -146.90625 C 87.859375 -146.90625 76.539062 -142.039062 67.875 -132.3125 C 59.21875 -122.59375 54.890625 -109.601562 54.890625 -93.34375 C 54.890625 -77.070312 59.21875 -64.078125 67.875 -54.359375 C 76.539062 -44.640625 87.859375 -39.78125 101.828125 -39.78125 C 110.484375 -39.78125 118.210938 -41.8125 125.015625 -45.875 C 131.828125 -49.9375 137.09375 -55.859375 140.8125 -63.640625 L 190.65625 -63.640625 C 185.351562 -43.484375 174.832031 -27.613281 159.09375 -16.03125 C 143.363281 -4.457031 124.453125 1.328125 102.359375 1.328125 C 84.328125 1.328125 68.191406 -2.691406 53.953125 -10.734375 C 39.722656 -18.785156 28.628906 -29.96875 20.671875 -44.28125 C 12.722656 -58.601562 8.75 -74.957031 8.75 -93.34375 Z M 8.75 -93.34375 "/></g></g></g><g fill="#ffffff" fill-opacity="1"><g transform="translate(564.99522, 278.529363)"><g><path d="M 124.359375 0 L 61.78125 -82.203125 L 61.78125 0 L 16.4375 0 L 16.4375 -186.15625 L 61.78125 -186.15625 L 61.78125 -104.484375 L 123.828125 -186.15625 L 177.140625 -186.15625 L 105.015625 -94.9375 L 179.78125 0 Z M 124.359375 0 "/></g></g></g><g fill="#ffffff" fill-opacity="1"><g transform="translate(743.103985, 278.529363)"><g><path d="M 61.78125 -149.828125 L 61.78125 -112.171875 L 122.515625 -112.171875 L 122.515625 -77.171875 L 61.78125 -77.171875 L 61.78125 -36.328125 L 130.46875 -36.328125 L 130.46875 0 L 16.4375 0 L 16.4375 -186.15625 L 130.46875 -186.15625 L 130.46875 -149.828125 Z M 61.78125 -149.828125 "/></g></g></g><g fill="#ffffff" fill-opacity="1"><g transform="translate(879.865206, 278.529363)"><g><path d="M 150.359375 -186.15625 L 150.359375 -149.828125 L 101.03125 -149.828125 L 101.03125 0 L 55.6875 0 L 55.6875 -149.828125 L 6.359375 -149.828125 L 6.359375 -186.15625 Z M 150.359375 -186.15625 "/></g></g></g><g fill="#ffffff" fill-opacity="1"><g transform="translate(1029.878856, 278.529363)"><g/></g></g><g fill="#ffffff" fill-opacity="1"><g transform="translate(1079.439423, 278.529363)"><g><path d="M 8.75 -93.34375 C 8.75 -111.726562 12.722656 -128.125 20.671875 -142.53125 C 28.628906 -156.9375 39.722656 -168.160156 53.953125 -176.203125 C 68.191406 -184.242188 84.328125 -188.265625 102.359375 -188.265625 C 124.453125 -188.265625 143.363281 -182.429688 159.09375 -170.765625 C 174.832031 -159.097656 185.351562 -143.191406 190.65625 -123.046875 L 140.8125 -123.046875 C 137.09375 -130.816406 131.828125 -136.734375 125.015625 -140.796875 C 118.210938 -144.867188 110.484375 -146.90625 101.828125 -146.90625 C 87.859375 -146.90625 76.539062 -142.039062 67.875 -132.3125 C 59.21875 -122.59375 54.890625 -109.601562 54.890625 -93.34375 C 54.890625 -77.070312 59.21875 -64.078125 67.875 -54.359375 C 76.539062 -44.640625 87.859375 -39.78125 101.828125 -39.78125 C 110.484375 -39.78125 118.210938 -41.8125 125.015625 -45.875 C 131.828125 -49.9375 137.09375 -55.859375 140.8125 -63.640625 L 190.65625 -63.640625 C 185.351562 -43.484375 174.832031 -27.613281 159.09375 -16.03125 C 143.363281 -4.457031 124.453125 1.328125 102.359375 1.328125 C 84.328125 1.328125 68.191406 -2.691406 53.953125 -10.734375 C 39.722656 -18.785156 28.628906 -29.96875 20.671875 -44.28125 C 12.722656 -58.601562 8.75 -74.957031 8.75 -93.34375 Z M 8.75 -93.34375 "/></g></g></g><g fill="#ffffff" fill-opacity="1"><g transform="translate(1274.776324, 278.529363)"><g><path d="M 104.484375 1.859375 C 86.972656 1.859375 70.925781 -2.207031 56.34375 -10.34375 C 41.757812 -18.476562 30.179688 -29.835938 21.609375 -44.421875 C 13.035156 -59.003906 8.75 -75.398438 8.75 -93.609375 C 8.75 -111.816406 13.035156 -128.164062 21.609375 -142.65625 C 30.179688 -157.15625 41.757812 -168.46875 56.34375 -176.59375 C 70.925781 -184.726562 86.972656 -188.796875 104.484375 -188.796875 C 121.984375 -188.796875 138.023438 -184.726562 152.609375 -176.59375 C 167.191406 -168.46875 178.679688 -157.15625 187.078125 -142.65625 C 195.472656 -128.164062 199.671875 -111.816406 199.671875 -93.609375 C 199.671875 -75.398438 195.425781 -59.003906 186.9375 -44.421875 C 178.457031 -29.835938 166.96875 -18.476562 152.46875 -10.34375 C 137.976562 -2.207031 121.984375 1.859375 104.484375 1.859375 Z M 104.484375 -39.515625 C 119.328125 -39.515625 131.210938 -44.460938 140.140625 -54.359375 C 149.066406 -64.253906 153.53125 -77.335938 153.53125 -93.609375 C 153.53125 -110.046875 149.066406 -123.171875 140.140625 -132.984375 C 131.210938 -142.796875 119.328125 -147.703125 104.484375 -147.703125 C 89.453125 -147.703125 77.472656 -142.835938 68.546875 -133.109375 C 59.617188 -123.390625 55.15625 -110.222656 55.15625 -93.609375 C 55.15625 -77.160156 59.617188 -64.03125 68.546875 -54.21875 C 77.472656 -44.414062 89.453125 -39.515625 104.484375 -39.515625 Z M 104.484375 -39.515625 "/></g></g></g><g fill="#ffffff" fill-opacity="1"><g transform="translate(1476.474375, 278.529363)"><g><path d="M 111.375 0 L 72.65625 -70.265625 L 61.78125 -70.265625 L 61.78125 0 L 16.4375 0 L 16.4375 -186.15625 L 92.546875 -186.15625 C 107.210938 -186.15625 119.71875 -183.585938 130.0625 -178.453125 C 140.40625 -173.328125 148.140625 -166.300781 153.265625 -157.375 C 158.390625 -148.445312 160.953125 -138.503906 160.953125 -127.546875 C 160.953125 -115.171875 157.460938 -104.117188 150.484375 -94.390625 C 143.503906 -84.671875 133.207031 -77.78125 119.59375 -73.71875 L 162.546875 0 Z M 61.78125 -102.359375 L 89.890625 -102.359375 C 98.203125 -102.359375 104.429688 -104.390625 108.578125 -108.453125 C 112.734375 -112.515625 114.8125 -118.257812 114.8125 -125.6875 C 114.8125 -132.757812 112.734375 -138.328125 108.578125 -142.390625 C 104.429688 -146.460938 98.203125 -148.5 89.890625 -148.5 L 61.78125 -148.5 Z M 61.78125 -102.359375 "/></g></g></g><g fill="#ffffff" fill-opacity="1"><g transform="translate(1642.656036, 278.529363)"><g><path d="M 61.78125 -149.828125 L 61.78125 -112.171875 L 122.515625 -112.171875 L 122.515625 -77.171875 L 61.78125 -77.171875 L 61.78125 -36.328125 L 130.46875 -36.328125 L 130.46875 0 L 16.4375 0 L 16.4375 -186.15625 L 130.46875 -186.15625 L 130.46875 -149.828125 Z M 61.78125 -149.828125 "/></g></g></g></g></g></g><g transform="matrix(1, 0, 0, 1, 928, 369)"><g clip-path="url(#411f290d6f)"><g fill="#edaf66" fill-opacity="1"><g transform="translate(1.538322, 209.267006)"><g><path d="M 61.671875 -146.203125 C 77.609375 -146.203125 91.414062 -143.226562 103.09375 -137.28125 C 114.769531 -131.34375 123.71875 -122.847656 129.9375 -111.796875 C 136.164062 -100.753906 139.28125 -87.75 139.28125 -72.78125 C 139.28125 -57.820312 136.164062 -44.851562 129.9375 -33.875 C 123.71875 -22.894531 114.769531 -14.503906 103.09375 -8.703125 C 91.414062 -2.898438 77.609375 0 61.671875 0 L 16.15625 0 L 16.15625 -146.203125 Z M 61.671875 -15.734375 C 80.546875 -15.734375 94.945312 -20.734375 104.875 -30.734375 C 114.8125 -40.734375 119.78125 -54.75 119.78125 -72.78125 C 119.78125 -90.96875 114.78125 -105.164062 104.78125 -115.375 C 94.78125 -125.582031 80.410156 -130.6875 61.671875 -130.6875 L 35.234375 -130.6875 L 35.234375 -15.734375 Z M 61.671875 -15.734375 "/></g></g></g><g fill="#edaf66" fill-opacity="1"><g transform="translate(145.583648, 209.267006)"><g><path d="M 35.234375 -146.203125 L 35.234375 0 L 16.15625 0 L 16.15625 -146.203125 Z M 35.234375 -146.203125 "/></g></g></g><g fill="#edaf66" fill-opacity="1"><g transform="translate(192.968169, 209.267006)"><g><path d="M 126.90625 -103.828125 C 122.851562 -112.359375 116.976562 -118.96875 109.28125 -123.65625 C 101.59375 -128.34375 92.644531 -130.6875 82.4375 -130.6875 C 72.226562 -130.6875 63.03125 -128.34375 54.84375 -123.65625 C 46.664062 -118.96875 40.234375 -112.253906 35.546875 -103.515625 C 30.867188 -94.773438 28.53125 -84.671875 28.53125 -73.203125 C 28.53125 -61.734375 30.867188 -51.664062 35.546875 -43 C 40.234375 -34.332031 46.664062 -27.65625 54.84375 -22.96875 C 63.03125 -18.28125 72.226562 -15.9375 82.4375 -15.9375 C 96.695312 -15.9375 108.441406 -20.203125 117.671875 -28.734375 C 126.898438 -37.265625 132.285156 -48.800781 133.828125 -63.34375 L 75.515625 -63.34375 L 75.515625 -78.875 L 154.171875 -78.875 L 154.171875 -64.1875 C 153.054688 -52.164062 149.28125 -41.15625 142.84375 -31.15625 C 136.414062 -21.15625 127.957031 -13.25 117.46875 -7.4375 C 106.976562 -1.632812 95.300781 1.265625 82.4375 1.265625 C 68.875 1.265625 56.5 -1.914062 45.3125 -8.28125 C 34.125 -14.644531 25.273438 -23.488281 18.765625 -34.8125 C 12.265625 -46.144531 9.015625 -58.941406 9.015625 -73.203125 C 9.015625 -87.472656 12.265625 -100.304688 18.765625 -111.703125 C 25.273438 -123.097656 34.125 -131.976562 45.3125 -138.34375 C 56.5 -144.707031 68.875 -147.890625 82.4375 -147.890625 C 97.957031 -147.890625 111.695312 -144.039062 123.65625 -136.34375 C 135.613281 -128.65625 144.316406 -117.816406 149.765625 -103.828125 Z M 126.90625 -103.828125 "/></g></g></g><g fill="#edaf66" fill-opacity="1"><g transform="translate(351.900575, 209.267006)"><g><path d="M 35.234375 -146.203125 L 35.234375 0 L 16.15625 0 L 16.15625 -146.203125 Z M 35.234375 -146.203125 "/></g></g></g><g fill="#edaf66" fill-opacity="1"><g transform="translate(399.285095, 209.267006)"><g><path d="M 106.140625 -146.203125 L 106.140625 -130.6875 L 66.28125 -130.6875 L 66.28125 0 L 47.203125 0 L 47.203125 -130.6875 L 7.125 -130.6875 L 7.125 -146.203125 Z M 106.140625 -146.203125 "/></g></g></g><g fill="#edaf66" fill-opacity="1"><g transform="translate(508.524139, 209.267006)"><g><path d="M 102.578125 -32.515625 L 38.8125 -32.515625 L 27.0625 0 L 6.921875 0 L 59.78125 -145.375 L 81.8125 -145.375 L 134.453125 0 L 114.328125 0 Z M 97.125 -48.03125 L 70.6875 -121.875 L 44.265625 -48.03125 Z M 97.125 -48.03125 "/></g></g></g><g fill="#edaf66" fill-opacity="1"><g transform="translate(645.650222, 209.267006)"><g><path d="M 35.234375 -15.515625 L 86.421875 -15.515625 L 86.421875 0 L 16.15625 0 L 16.15625 -146.203125 L 35.234375 -146.203125 Z M 35.234375 -15.515625 "/></g></g></g></g></g></g></g></svg>